<svg xmlns="http://www.w3.org/2000/svg" xmlns:xlink="http://www.w3.org/1999/xlink" viewBox="0 0 30 30" fill="#FFFFFF">
  <path d="M5 4 A 1.0001 1.0001 0 1 0 5 6L15 6L15 12C13.906937 12 13 12.906937 13 14L13 16L5 16 A 1.0001 1.0001 0 1 0 5 18L13 18L13 24C13 25.093063 13.906937 26 15 26L25 26 A 1.0001 1.0001 0 1 0 25 24L15 24L15 17.167969 A 1.0001 1.0001 0 0 0 15 16.841797L15 14L15.832031 14 A 1.0001 1.0001 0 0 0 16.158203 14L25 14 A 1.0001 1.0001 0 1 0 25 12L17 12L17 6C17 4.9069372 16.093063 4 15 4L5 4 z M 9 8L9 10L5 10 A 1.0001 1.0001 0 1 0 5 12L9 12L9 14L12 11L9 8 z M 21 16L18 19L21 22L21 20L25 20 A 1.0001 1.0001 0 1 0 25 18L21 18L21 16 z" fill="#FFFFFF" />
</svg>