<svg xmlns="http://www.w3.org/2000/svg" xmlns:xlink="http://www.w3.org/1999/xlink" viewBox="0 0 50 50" fill="#FFFFFF">
  <path d="M40 0C34.535156 0 30.078125 4.398438 30 9.84375C30 9.894531 30 9.949219 30 10C30 13.6875 31.996094 16.890625 34.96875 18.625C36.445313 19.488281 38.167969 20 40 20C45.515625 20 50 15.515625 50 10C50 4.484375 45.515625 0 40 0 Z M 28.0625 10.84375L17.84375 15.96875C20.222656 18.03125 21.785156 21 21.96875 24.34375L32.3125 19.15625C29.898438 17.128906 28.300781 14.175781 28.0625 10.84375 Z M 10 15C4.484375 15 0 19.484375 0 25C0 30.515625 4.484375 35 10 35C12.050781 35 13.941406 34.375 15.53125 33.3125C18.214844 31.519531 20 28.472656 20 25C20 21.410156 18.089844 18.265625 15.25 16.5C13.71875 15.546875 11.929688 15 10 15 Z M 21.96875 25.65625C21.785156 28.996094 20.25 31.996094 17.875 34.0625L28.0625 39.15625C28.300781 35.824219 29.871094 32.875 32.28125 30.84375 Z M 40 30C37.9375 30 36.03125 30.644531 34.4375 31.71875C31.769531 33.515625 30 36.542969 30 40C30 40.015625 30 40.015625 30 40.03125C29.957031 40.035156 29.917969 40.058594 29.875 40.0625L30 40.125C30.066406 45.582031 34.527344 50 40 50C45.515625 50 50 45.515625 50 40C50 34.484375 45.515625 30 40 30Z" fill="#FFFFFF" />
</svg>